<svg version="1" xmlns="http://www.w3.org/2000/svg" width="17.333" height="10.667" viewBox="0 0 512.000000 512.000000"><path d="M116.5 5.8c-6.8 2.4-11.4 5.6-22 14.8-4.9 4.4-13 11.3-17.9 15.4C39.5 67.1 19.7 117.8 24 170.4c5.5 67.3 43.2 138.2 116 218.1 54 59.2 111.7 99.2 163 112.9 19.9 5.3 26.2 6.1 49 6.1 23.9 0 34.6-1.6 51.9-7.7C426 492 442 482.1 463 463.1c20.3-18.4 24-22.4 27.2-28.8 2.8-5.8 3-6.8 2.6-14.5-.9-16.7-10.4-29.2-44.8-58.7-29.5-25.2-48-35.1-65.5-35.1-17 .1-26.7 5.9-54.4 32.5-15.5 14.9-21 18.2-31.5 19.2-24.9 2.3-60.4-23-102.5-73-32.6-38.8-48.3-68.1-48.3-90.5 0-14.4 5-23.1 19.2-33.6 11.9-8.8 30.8-25.2 34.9-30.5 1.7-2.1 4.5-6.9 6.3-10.6 2.5-5.5 3.2-8.3 3.6-15.9 1-19.9-7.3-38.8-36-81.8-9.9-14.9-23.5-29.3-32-33.8-7.9-4.2-17.5-5.1-25.3-2.2z"/></svg>