<svg version="1" xmlns="http://www.w3.org/2000/svg" width="13.333" height="13.333" viewBox="0 0 512.000000 512.000000"><path d="M45.4 71C23.7 74.2 4.9 92.2 1.1 113.4c-1.5 8.3-1.5 276.9 0 285.2C4.4 417 19.8 434 38.5 439.7c5.7 1.7 15.1 1.8 217.5 1.8s211.8-.1 217.5-1.8c18.7-5.7 34.1-22.7 37.4-41.1 1.5-8.3 1.5-276.9 0-285.2-3.3-18.1-18.3-34.8-36.9-41.1-5.3-1.7-14.3-1.8-214.5-1.9-114.9-.1-211.3.2-214.1.6zm393.2 39.9c-1.3 2.1-172 136.8-175.4 138.3-2 1-5.3 1.7-7.2 1.7-1.9 0-5.2-.7-7.2-1.7-3.4-1.5-174.1-136.2-175.4-138.3-.3-.5 79.9-.9 182.6-.9 102.7 0 182.9.4 182.6.9zm-306.7 97.6c48.5 38.5 90.8 71.6 94 73.6 18.1 11 42.3 10.9 60.5-.2 2.8-1.7 45.6-35.2 95.1-74.5l90-71.4.3 128.1c.2 127 .2 128.2-1.8 131.4-4.4 7 13.5 6.5-214 6.5s-209.6.5-214-6.5c-2-3.2-2-4.6-2-131.4 0-124.6.1-128.2 1.9-126.9 1 .7 41.5 32.8 90 71.3z"/></svg>