<svg version="1" xmlns="http://www.w3.org/2000/svg" width="18.667" height="18.667" viewBox="0 0 512.000000 512.000000"><path d="M255.2 17.1c-.5 1.3-13.9 42.4-29.7 91.4-15.9 49-29 89.2-29.2 89.5-.3.3-44.2.7-97.6 1l-97.1.5L54.5 238c57 41.3 98.9 72.5 101.7 75.7 1.9 2.1 2.1 1.5-39.6 130.2-9.1 28.2-16.6 51.9-16.6 52.7 0 1.3 20.6-13.3 96-67.8 32.3-23.3 60.2-42.8 61.4-42.8.4 0 14.7 10.2 31.9 22.7 47.4 34.5 120.8 87.3 122.8 88.4 1.7.8 1.7.6.4-3.3-.7-2.4-12.4-38.5-25.8-80.3-13.5-41.8-26.1-81-28-87-3.3-10.4-3.5-11.1-1.9-12.9 2.8-3.1 41.8-32.1 99.7-74.1l55-40-96.6-.3c-75.7-.2-96.9-.5-97.7-1.5-.5-.6-3.4-8.9-6.5-18.2-3-9.4-16.2-49.9-29.2-90-13.1-40.2-24.1-73.4-24.6-73.9s-1.2.1-1.7 1.5z"/></svg>