<svg version="1" xmlns="http://www.w3.org/2000/svg" width="16" height="10.667" viewBox="0 0 338.000000 466.000000"><path d="M158.5 9.6c-4.6 1.4-10.2 6.7-74.3 70.7-50.9 50.8-70.1 70.5-72 74.2-2.3 4.3-2.7 6.2-2.7 13.5s.4 9.2 2.7 13.7c3.6 6.8 9 12 15.8 15.2 4.5 2.1 6.9 2.6 13.5 2.6 6.7 0 8.8-.5 13-2.7 3.5-1.9 16.2-13.9 43.5-41.2l38.5-38.6.5 157.7.5 157.8 2.5 5c3.1 6.4 9.1 12.4 15.5 15.5 7.2 3.5 19.8 3.5 27 0 6.4-3.1 12.4-9.1 15.5-15.5l2.5-5 .5-157.8.5-157.7 38.5 38.6c27.3 27.3 40 39.3 43.5 41.2 4.2 2.2 6.3 2.7 13 2.7 9.5 0 16.6-2.8 22.8-9.1 6.7-6.8 9.1-12.6 9.1-22.4.1-7.3-.3-9.2-2.6-13.5-3.7-7-137.3-140.3-143.8-143.6-5.8-2.9-16.5-3.5-23.5-1.3z"/></svg>