<svg version="1" xmlns="http://www.w3.org/2000/svg" width="13.333" height="13.333" viewBox="0 0 512.000000 512.000000"><path d="M0 25.5V51l25.7.2 25.6.3 43.6 92c24 50.6 44.7 94.4 46 97.2l2.4 5.2-18 30.8c-16 27.5-18.2 31.9-20.3 39.8-5.4 21.1-1 38.6 13.1 52.5 3.1 3.1 8.3 7 11.6 8.8 12.3 6.5 3 6.2 175.1 6.2H461v-51H312.2c-163.1 0-153.2.4-153.2-5.7 0-1.5 5.1-12.2 11.2-23.9l11.3-21.3 99.5-.3 99.5-.3 6.5-2.2c11.6-4 20.2-10.9 26.3-21.1 1.9-3.1 23.6-42.2 48.2-86.7 24.6-44.6 45.6-81.9 46.6-83 4.3-4.9 5.1-13.2 1.9-21.8-2.3-6-6.7-10.8-12.5-13.4-3.8-1.7-13.6-1.8-197-2.1L107.4 51 96 25.5 84.5 0H0v25.5zm138 386.8c-26.9 9.1-41.6 37.9-32.9 64.5 5.6 17.1 22.4 31.3 40.6 34.4 26 4.3 52.3-13.9 57.9-40.1 1.8-8.9 1.8-13.4-.5-22.2-4.6-18-18.2-32.1-36-37.3-8.1-2.4-21.1-2.1-29.1.7zm256 0c-26.9 9.1-41.6 37.9-32.9 64.5 5.6 17.1 22.4 31.3 40.6 34.4 26 4.3 52.3-13.9 57.9-40.1 1.8-8.9 1.8-13.4-.5-22.2-4.6-18-18.2-32.1-36-37.3-8.1-2.4-21.1-2.1-29.1.7z"/></svg>