<svg version="1" xmlns="http://www.w3.org/2000/svg" width="13.333" height="13.333" viewBox="0 0 512.000000 512.000000"><g fill="gray"><path d="M130.1 143.8L0 258.4l2.4 3c1.2 1.7 4.7 4.6 7.7 6.4 5.1 3.2 5.8 3.3 13.4 3 6.9-.4 9-.9 15-4.1 5.4-2.8 33.1-25.7 114-94.2C211.4 122.7 259.8 82 260.2 82c.4 0 45 39.7 99.1 88.2 64.1 57.5 100.6 89.6 104.8 92.1 18.1 10.7 36.4 9.9 45.5-1.9l2.4-3.1-83.2-75.4C383 140.4 326.4 89.1 302.9 67.8l-42.7-38.6-130.1 114.6zM401 111.5v30.4l24.5 20.8c13.5 11.4 25 20.9 25.5 21.1.6.2 1-18.9 1-51.2V81h-51v30.5z"/><path d="M164.2 193.8l-94.1 78.7v101.3c-.1 111.5-.4 105.8 6 108.1 2.2.8 23.1 1.1 67.9 1.1h64.7l.6-39.8c.4-21.8.7-47.4.7-56.7 0-15.1.2-17.4 2-20.2 4-6.6 5.1-6.8 38.5-6.8 16.5 0 31.7.4 33.7.8 4.6 1 9.6 5.1 11.4 9.4 1.1 2.6 1.4 14 1.4 57.8V482h65c73.1 0 69.6.4 73.1-7.3 1.8-4 1.9-8.1 1.9-102.8v-98.5l-88.2-78.5c-48.4-43.1-88.7-78.7-89.3-79.1-.8-.5-36.6 28.9-95.3 78z"/></g></svg>