<svg version="1" xmlns="http://www.w3.org/2000/svg" width="348" height="586.667" viewBox="0 0 261.000000 440.000000"><path d="M115.5 4.7c-8.1 1-19.9 3.8-27.5 6.5-42.1 14.9-73.8 52.4-81.4 96.3-3.1 17.7-1.7 41.2 3.5 58 3.1 10.2 118.1 271.7 119 270.8.7-.7 88.4-196.3 111.5-248.5 8.2-18.6 10.8-26.7 12.9-40.8 4.7-30.3-2.7-62.1-20.6-88.6-6.9-10.2-22.3-25.7-32.3-32.4-10-6.7-25.9-14.3-35.6-17-14.9-4.1-36.3-6-49.5-4.3zm28.4 71.8c8.2 2.1 15.9 6.4 22.5 12.5 7.5 6.9 11.8 13.7 15.2 23.7 2.3 6.9 2.6 8.9 2.2 18.3-.7 16.1-5.7 27.2-17.1 38.2-8.6 8.3-25 14.8-37.2 14.8-13.3 0-27.8-6.3-38-16.5-8.3-8.2-12.9-16.8-15.2-28.3-5.5-26.8 12.2-55.5 38.8-62.6 7-1.9 21.9-2 28.8-.1z"/></svg>